<svg width="283" height="107" viewBox="0 0 283 107" fill="none" xmlns="http://www.w3.org/2000/svg">
<g clip-path="url(#clip0_1_723)">
<path d="M283 83.6837V34.5138C283 21.6444 270.233 11.2117 254.485 11.2117L28.5151 11.2117C12.7666 11.2117 0 21.6444 0 34.5138V83.6837C0 96.5531 12.7666 106.986 28.5151 106.986L254.485 106.986C270.233 106.986 283 96.5531 283 83.6837Z" fill="#868F48"/>
<path d="M261.423 11.9062H21.5771C9.6604 11.9062 0 19.8006 0 29.5388V79.7008C0 89.439 9.6604 97.3333 21.5771 97.3333H261.423C273.34 97.3333 283 89.439 283 79.7008V29.5388C283 19.8006 273.34 11.9062 261.423 11.9062Z" fill="#A6B54A"/>
<path d="M261.423 4.13879H21.5771C9.6604 4.13879 0 12.0331 0 21.7713V71.9333C0 81.6715 9.6604 89.5659 21.5771 89.5659H261.423C273.34 89.5659 283 81.6715 283 71.9333V21.7713C283 12.0331 273.34 4.13879 261.423 4.13879Z" fill="#BFD050"/>
<path d="M263.296 0H19.7038C8.81123 0 0 7.20042 0 16.1017V23.8266C0 14.9253 8.81123 7.72486 19.7038 7.72486H263.296C274.171 7.72486 283 14.9253 283 23.8266V16.1017C283 7.2146 274.189 0 263.296 0Z" fill="#D7E28E"/>
<path d="M22.4964 13.2953C23.884 15.2513 21.3516 18.568 16.8419 20.6941C12.3323 22.8202 7.56239 22.962 6.1748 20.9918C4.7872 19.0358 7.31956 15.719 11.8292 13.5929C16.3389 11.4668 21.1088 11.3251 22.4964 13.2953Z" fill="#D7E28E"/>
<path d="M88.8068 37.5L77.2568 37.8C76.6568 37.8333 76.2235 37.75 75.9568 37.55C75.7235 37.3167 75.6068 36.9167 75.6068 36.35V31.65C75.6068 31.0833 75.7235 30.7167 75.9568 30.55C76.2235 30.35 76.6568 30.2333 77.2568 30.2L95.8068 29.7C96.5735 29.6667 97.0902 29.8167 97.3568 30.15C97.6568 30.4833 97.7735 31.0833 97.7068 31.95L96.7568 43.95L100.507 43.85V32.95C100.507 32.0833 100.64 31.5 100.907 31.2C101.207 30.8667 101.707 30.7 102.407 30.7H107.107C107.84 30.7 108.34 30.8667 108.607 31.2C108.874 31.5 109.007 32.0833 109.007 32.95V63.75C109.007 64.6167 108.874 65.2167 108.607 65.55C108.34 65.85 107.84 66 107.107 66H102.407C101.707 66 101.207 65.85 100.907 65.55C100.64 65.2167 100.507 64.6167 100.507 63.75V51.45L96.1568 51.55L95.1568 64.75C95.0902 65.6167 94.9402 66.2 94.7068 66.5C94.4735 66.8333 93.9902 67 93.2568 67H88.6068C87.9068 67 87.3902 66.8333 87.0568 66.5C86.7568 66.2 86.6402 65.6167 86.7068 64.75L88.8068 37.5ZM111.407 32.45C111.407 31.5833 111.54 31 111.807 30.7C112.107 30.3667 112.607 30.2 113.307 30.2H118.007C118.74 30.2 119.24 30.3667 119.507 30.7C119.774 31 119.907 31.5833 119.907 32.45V63.25C119.907 64.1167 119.774 64.7167 119.507 65.05C119.24 65.35 118.74 65.5 118.007 65.5H113.307C112.607 65.5 112.107 65.35 111.807 65.05C111.54 64.7167 111.407 64.1167 111.407 63.25V32.45ZM156.843 31.95C156.843 31.0833 156.976 30.5 157.243 30.2C157.543 29.8667 158.043 29.7 158.743 29.7H163.443C164.176 29.7 164.676 29.8667 164.943 30.2C165.21 30.5 165.343 31.0833 165.343 31.95V52.25C165.343 53.1167 165.21 53.7167 164.943 54.05C164.676 54.35 164.176 54.5 163.443 54.5H158.743C158.043 54.5 157.543 54.35 157.243 54.05C156.976 53.7167 156.843 53.1167 156.843 52.25V31.95ZM137.143 75.7C136.443 75.7333 135.96 75.6 135.693 75.3C135.426 75 135.276 74.5667 135.243 74L134.793 59.6C134.76 58.9333 134.843 58.45 135.043 58.15C135.243 57.85 135.71 57.6833 136.443 57.65L160.393 57.15C161.893 57.0833 162.61 57.7333 162.543 59.1L162.093 73.5C162.06 74.0667 161.91 74.4833 161.643 74.75C161.376 75.0167 160.893 75.1667 160.193 75.2L137.143 75.7ZM143.543 69.1L153.793 68.85V63.95L143.543 64.2V69.1ZM138.643 55.2C136.276 55.2 134.193 54.85 132.393 54.15C130.593 53.4167 129.076 52.45 127.843 51.25C126.643 50.05 125.726 48.65 125.093 47.05C124.493 45.45 124.193 43.75 124.193 41.95C124.193 40.15 124.493 38.45 125.093 36.85C125.726 35.25 126.643 33.85 127.843 32.65C129.076 31.45 130.593 30.5 132.393 29.8C134.193 29.0667 136.276 28.7 138.643 28.7C141.01 28.7 143.093 29.0667 144.893 29.8C146.693 30.5 148.193 31.45 149.393 32.65C150.626 33.85 151.543 35.25 152.143 36.85C152.776 38.45 153.093 40.15 153.093 41.95C153.093 43.75 152.776 45.45 152.143 47.05C151.543 48.65 150.626 50.05 149.393 51.25C148.193 52.45 146.693 53.4167 144.893 54.15C143.093 54.85 141.01 55.2 138.643 55.2ZM138.643 47.6C139.743 47.6 140.676 47.45 141.443 47.15C142.243 46.8167 142.893 46.4 143.393 45.9C143.893 45.3667 144.26 44.7667 144.493 44.1C144.76 43.4 144.893 42.6833 144.893 41.95C144.893 41.2167 144.76 40.5167 144.493 39.85C144.26 39.1833 143.893 38.5833 143.393 38.05C142.893 37.5167 142.243 37.1 141.443 36.8C140.676 36.4667 139.743 36.3 138.643 36.3C137.543 36.3 136.593 36.4667 135.793 36.8C135.026 37.1 134.393 37.5167 133.893 38.05C133.393 38.5833 133.01 39.1833 132.743 39.85C132.51 40.5167 132.393 41.2167 132.393 41.95C132.393 42.6833 132.51 43.4 132.743 44.1C133.01 44.7667 133.393 45.3667 133.893 45.9C134.393 46.4 135.026 46.8167 135.793 47.15C136.593 47.45 137.543 47.6 138.643 47.6ZM187.653 67.5C186.986 67.5 186.486 67.35 186.153 67.05C185.82 66.7833 185.653 66.3 185.653 65.6V61.1C185.653 60.9333 185.703 60.7 185.803 60.4C185.936 60.0667 186.12 59.8 186.353 59.6C187.353 58.7 188.586 57.6167 190.053 56.35C191.52 55.05 192.92 53.65 194.253 52.15C195.586 50.6833 196.72 49.15 197.653 47.55C198.62 45.95 199.103 44.3833 199.103 42.85C199.103 41.45 198.753 40.3 198.053 39.4C197.353 38.4667 196.07 38 194.203 38C192.47 38 190.936 38.2667 189.603 38.8C188.303 39.3333 187.236 39.8333 186.403 40.3C185.936 40.5667 185.536 40.6 185.203 40.4C184.87 40.2 184.62 39.8667 184.453 39.4L183.353 35.7C183.02 34.6 183.27 33.8333 184.103 33.4C184.77 33.0333 185.47 32.6667 186.203 32.3C186.936 31.9333 187.753 31.6 188.653 31.3C189.553 31 190.536 30.7667 191.603 30.6C192.703 30.4 193.936 30.3 195.303 30.3C196.803 30.3 198.286 30.5 199.753 30.9C201.22 31.3 202.536 31.95 203.703 32.85C204.87 33.7833 205.82 35 206.553 36.5C207.286 38 207.653 39.85 207.653 42.05C207.653 43.75 207.336 45.4 206.703 47C206.103 48.5667 205.27 50.1 204.203 51.6C203.136 53.1333 201.886 54.6333 200.453 56.1C199.053 57.5333 197.57 58.9333 196.003 60.3H204.803C205.503 60.3 206.003 60.45 206.303 60.75C206.636 61.0167 206.803 61.5 206.803 62.2V65.6C206.803 66.3 206.636 66.7833 206.303 67.05C206.003 67.35 205.503 67.5 204.803 67.5H187.653Z" fill="white"/>
</g>
<defs>
<clipPath id="clip0_1_723">
<rect width="283" height="107" fill="white"/>
</clipPath>
</defs>
</svg>
