<svg width="171" height="50" viewBox="0 0 171 50" fill="none" xmlns="http://www.w3.org/2000/svg">
<g clip-path="url(#clip0_1_1036)">
<path d="M66.7928 43.5164C66.5161 43.4004 66.159 43.2843 65.7128 43.1594C65.3647 43.0612 65.088 42.9719 64.8827 42.8916C64.6863 42.8113 64.5167 42.7042 64.3828 42.5792C64.2489 42.4453 64.1865 42.2847 64.1865 42.0794C64.1865 41.8205 64.2936 41.6152 64.5167 41.4635C64.7309 41.3028 65.0255 41.2225 65.3914 41.2225C65.7931 41.2225 66.1055 41.3207 66.3465 41.517C66.5786 41.7134 66.7124 41.9723 66.7303 42.2936H67.7568C67.73 41.6956 67.4979 41.2225 67.0784 40.8744C66.6589 40.5263 66.1055 40.3567 65.4271 40.3567C64.9808 40.3567 64.5881 40.437 64.2489 40.5888C63.9098 40.7405 63.642 40.9547 63.4456 41.2136C63.2493 41.4724 63.1689 41.767 63.1689 42.0794C63.1689 42.481 63.276 42.7934 63.4813 43.0433C63.6866 43.2843 63.9365 43.4718 64.2222 43.5967C64.5078 43.7217 64.8827 43.8467 65.3379 43.9627C65.8377 44.0877 66.2126 44.2215 66.4536 44.3465C66.6946 44.4804 66.8106 44.6768 66.8106 44.9534C66.8106 45.2301 66.6946 45.4354 66.4714 45.605C66.2483 45.7746 65.9359 45.8639 65.5521 45.8639C65.1326 45.8639 64.7934 45.7657 64.5346 45.5693C64.2757 45.373 64.1329 45.123 64.0972 44.8106H63.035C63.0618 45.1855 63.1778 45.5158 63.3921 45.8103C63.6063 46.0959 63.9098 46.328 64.2846 46.4887C64.6595 46.6493 65.0879 46.7297 65.561 46.7297C66.0073 46.7297 66.4 46.6493 66.7392 46.4976C67.0784 46.3459 67.3462 46.1316 67.5336 45.8639C67.7211 45.5961 67.8192 45.2926 67.8192 44.9534C67.8192 44.5786 67.7121 44.2751 67.5068 44.043C67.3105 43.811 67.0695 43.6324 66.7928 43.5164Z" fill="#1D1D1B"/>
<path d="M75.4161 38.0627C75.2198 38.0627 75.0591 38.1341 74.9163 38.268C74.7824 38.4019 74.711 38.5715 74.711 38.7679C74.711 38.9642 74.7824 39.1249 74.9163 39.2588C75.0502 39.3927 75.2198 39.4641 75.4161 39.4641C75.6125 39.4641 75.7642 39.3927 75.8981 39.2588C76.032 39.1249 76.0945 38.9553 76.0945 38.7679C76.0945 38.5804 76.032 38.4108 75.8981 38.268C75.7642 38.1341 75.6036 38.0627 75.4161 38.0627Z" fill="#1D1D1B"/>
<path d="M75.914 40.4543H74.8875V46.622H75.914V40.4543Z" fill="#1D1D1B"/>
<path d="M86.2954 40.3479C85.8759 40.3479 85.492 40.4372 85.1439 40.6067C84.7958 40.7763 84.5191 41.0263 84.3138 41.3387V40.4639H83.2874V46.6316H84.3138V43.222C84.3138 42.5793 84.4745 42.0884 84.7958 41.7492C85.1172 41.4101 85.5456 41.2405 86.0811 41.2405C86.6167 41.2405 87.0362 41.4011 87.3397 41.7314C87.6431 42.0616 87.8038 42.5258 87.8038 43.1417V46.6316H88.8213V42.9988C88.8213 42.142 88.5893 41.4904 88.1251 41.0352C87.661 40.58 87.0541 40.3568 86.3043 40.3568L86.2954 40.3479Z" fill="#1D1D1B"/>
<path d="M98.7472 41.2225C99.1935 41.2225 99.5773 41.3296 99.8808 41.5527C100.184 41.767 100.39 42.0704 100.497 42.4453H101.603C101.443 41.7937 101.121 41.285 100.631 40.9101C100.14 40.5441 99.5148 40.3567 98.7561 40.3567C98.167 40.3567 97.6493 40.4906 97.1941 40.7494C96.7389 41.0083 96.3819 41.3832 96.132 41.8562C95.8731 42.3293 95.7482 42.8916 95.7482 43.5253C95.7482 44.1591 95.8731 44.7303 96.132 45.2123C96.3908 45.6943 96.7389 46.0602 97.1941 46.328C97.6493 46.5869 98.167 46.7207 98.7561 46.7207C99.497 46.7207 100.122 46.5333 100.613 46.1495C101.104 45.7746 101.434 45.2658 101.603 44.6321H100.497C100.381 45.0249 100.175 45.3194 99.8808 45.5336C99.5773 45.7478 99.2024 45.846 98.7561 45.846C98.167 45.846 97.694 45.6407 97.3369 45.2391C96.9799 44.8374 96.7925 44.2572 96.7925 43.5164C96.7925 42.7756 96.971 42.2132 97.3369 41.8116C97.7029 41.4099 98.167 41.2046 98.7561 41.2046L98.7472 41.2225Z" fill="#1D1D1B"/>
<path d="M112.805 40.7405C112.359 40.4817 111.832 40.3567 111.252 40.3567C110.672 40.3567 110.118 40.4817 109.654 40.7405C109.19 40.9993 108.833 41.3653 108.583 41.8473C108.324 42.3293 108.199 42.8827 108.199 43.5253C108.199 44.168 108.333 44.7214 108.592 45.2123C108.851 45.7032 109.217 46.0692 109.681 46.328C110.145 46.5869 110.663 46.7207 111.252 46.7207C111.984 46.7207 112.6 46.5333 113.1 46.1674C113.599 45.7925 113.93 45.3105 114.09 44.7214H112.984C112.867 45.0695 112.653 45.3462 112.359 45.5515C112.064 45.7568 111.689 45.8639 111.252 45.8639C110.707 45.8639 110.252 45.6943 109.868 45.3551C109.494 45.0159 109.279 44.5429 109.244 43.927H114.171C114.197 43.7128 114.206 43.5075 114.206 43.3111C114.206 42.7488 114.081 42.24 113.84 41.7937C113.599 41.3474 113.251 40.9993 112.796 40.7405H112.805ZM109.261 43.0969C109.315 42.5078 109.52 42.0526 109.886 41.7223C110.252 41.3921 110.69 41.2225 111.207 41.2225C111.564 41.2225 111.895 41.2939 112.189 41.4456C112.484 41.5884 112.716 41.8027 112.894 42.0883C113.064 42.365 113.153 42.7042 113.153 43.0969H109.261Z" fill="#1D1D1B"/>
<path d="M132.889 44.1235C133.362 43.6772 133.781 43.1595 134.156 42.5704C134.531 41.9813 134.71 41.3744 134.71 40.7496C134.71 39.9998 134.486 39.4107 134.031 38.9823C133.576 38.5538 132.96 38.3396 132.192 38.3396C131.425 38.3396 130.818 38.5717 130.336 39.0269C129.854 39.4821 129.604 40.1337 129.568 40.9727H130.559C130.577 40.4371 130.738 40.0176 131.014 39.6963C131.3 39.375 131.693 39.2143 132.201 39.2143C132.71 39.2143 133.112 39.3571 133.344 39.6338C133.585 39.9105 133.701 40.3033 133.701 40.7853C133.701 41.3029 133.513 41.8296 133.147 42.3651C132.773 42.9007 132.317 43.4183 131.782 43.9093C131.246 44.4002 130.497 45.0339 129.542 45.7926V46.5245H134.959V45.6676H131.086C131.818 45.0785 132.425 44.5519 132.898 44.1056L132.889 44.1235Z" fill="#1D1D1B"/>
<path d="M144.599 38.3657C143.546 38.3657 142.814 38.7317 142.395 39.4547C141.975 40.1776 141.761 41.1863 141.761 42.4805C141.761 43.7747 141.975 44.819 142.395 45.542C142.814 46.2739 143.546 46.631 144.599 46.631C145.653 46.631 146.376 46.265 146.795 45.542C147.215 44.819 147.429 43.7926 147.429 42.4805C147.429 41.1684 147.215 40.1866 146.795 39.4547C146.376 38.7317 145.644 38.3657 144.599 38.3657ZM146.286 44.1764C146.197 44.6316 146.027 45.0065 145.76 45.2832C145.492 45.5599 145.108 45.7027 144.608 45.7027C144.108 45.7027 143.707 45.5599 143.439 45.2832C143.171 45.0065 142.993 44.6405 142.912 44.1764C142.832 43.7122 142.787 43.1499 142.787 42.4805C142.787 41.8111 142.832 41.2755 142.912 40.8203C143.002 40.3651 143.171 39.9991 143.439 39.7224C143.707 39.4457 144.091 39.3029 144.608 39.3029C145.126 39.3029 145.492 39.4457 145.76 39.7224C146.027 39.9991 146.206 40.3651 146.286 40.8203C146.375 41.2755 146.42 41.8289 146.42 42.4805C146.42 43.1321 146.375 43.7212 146.286 44.1764Z" fill="#1D1D1B"/>
<path d="M157.299 38.3657C156.246 38.3657 155.514 38.7317 155.094 39.4547C154.675 40.1776 154.461 41.1863 154.461 42.4805C154.461 43.7747 154.675 44.819 155.094 45.542C155.514 46.2739 156.246 46.631 157.299 46.631C158.352 46.631 159.075 46.265 159.495 45.542C159.914 44.819 160.128 43.7926 160.128 42.4805C160.128 41.1684 159.914 40.1866 159.495 39.4547C159.075 38.7317 158.343 38.3657 157.299 38.3657ZM158.986 44.1764C158.897 44.6316 158.727 45.0065 158.459 45.2832C158.192 45.5599 157.808 45.7027 157.308 45.7027C156.808 45.7027 156.406 45.5599 156.139 45.2832C155.871 45.0065 155.692 44.6405 155.612 44.1764C155.532 43.7122 155.487 43.1499 155.487 42.4805C155.487 41.8111 155.532 41.2755 155.612 40.8203C155.701 40.3651 155.871 39.9991 156.139 39.7224C156.406 39.4457 156.79 39.3029 157.308 39.3029C157.826 39.3029 158.192 39.4457 158.459 39.7224C158.727 39.9991 158.906 40.3651 158.986 40.8203C159.075 41.2755 159.12 41.8289 159.12 42.4805C159.12 43.1321 159.075 43.7212 158.986 44.1764Z" fill="#1D1D1B"/>
<path d="M166.885 39.4192H167.965V46.6312H169V38.491H166.885V39.4192Z" fill="#1D1D1B"/>
<path d="M152.933 28.1465V23.3801H148.684V32.0827H170.829V28.1465H152.933Z" fill="#1D1D1B"/>
<path d="M155.065 21.3804C158.698 21.3804 161.706 18.6134 162.099 15.0877H166.606V26.1646H170.65V5.92993H166.606V11.5264H161.929C161.171 8.42914 158.377 6.11737 155.056 6.11737H153.057C149.157 6.11737 145.97 9.30386 145.97 13.2044V14.3023C145.97 18.2028 149.157 21.3893 153.057 21.3893H155.056L155.065 21.3804ZM149.996 14.0256V13.4722C149.996 11.5085 151.602 9.90189 153.566 9.90189H154.574C156.538 9.90189 158.145 11.5085 158.145 13.4722V14.0256C158.145 15.9892 156.538 17.5959 154.574 17.5959H153.566C151.602 17.5959 149.996 15.9892 149.996 14.0256Z" fill="#1D1D1B"/>
<path d="M83.4554 5.92993H79.2246V30.9934H83.4554V5.92993Z" fill="#1D1D1B"/>
<path d="M68.3617 6.82251H67.719C63.1312 6.82251 59.3824 10.3839 59.3824 14.9717V20.3807C59.3824 24.9685 63.1312 28.5299 67.719 28.5299H68.3617C72.9495 28.5299 76.6983 24.9685 76.6983 20.3807V14.9717C76.6983 10.3839 72.9495 6.82251 68.3617 6.82251ZM72.771 20.104C72.771 22.7103 70.6378 25.0221 68.0404 25.0221C65.443 25.0221 63.3097 22.7014 63.3097 20.104V15.2484C63.3097 12.6421 65.443 10.3303 68.0404 10.3303C70.6378 10.3303 72.771 12.651 72.771 15.2484V20.104Z" fill="#1D1D1B"/>
<path d="M141.393 5.92993H137.162V30.9934H141.393V5.92993Z" fill="#1D1D1B"/>
<path d="M126.291 6.82251H125.648C121.06 6.82251 117.311 10.3839 117.311 14.9717V20.3807C117.311 24.9685 121.06 28.5299 125.648 28.5299H126.291C130.878 28.5299 134.627 24.9685 134.627 20.3807V14.9717C134.627 10.3839 130.878 6.82251 126.291 6.82251ZM130.7 20.104C130.7 22.7103 128.567 25.0221 125.969 25.0221C123.372 25.0221 121.239 22.7014 121.239 20.104V15.2484C121.239 12.6421 123.372 10.3303 125.969 10.3303C128.567 10.3303 130.7 12.651 130.7 15.2484V20.104Z" fill="#1D1D1B"/>
<path d="M111.295 6.41187H107.207V27.2356H98.692V24.1562C101.736 23.9063 104.164 21.0233 104.164 17.9261C104.164 14.8288 101.513 11.6781 98.2725 11.6781H94.9789C91.7389 11.6781 89.0879 14.686 89.0879 17.9261C89.0879 21.1661 91.5961 24.0045 94.7201 24.1652V27.2356H87.9811V30.681H111.286V19.0239H114.33V15.0341H111.286V6.41187H111.295ZM95.8804 20.9787C94.4077 20.9787 93.1938 19.4077 93.1938 17.935C93.1938 16.4623 94.3987 14.8913 95.8804 14.8913H97.3799C98.8527 14.8913 100.067 16.4623 100.067 17.935C100.067 19.4077 98.8616 20.9787 97.3799 20.9787H95.8804Z" fill="#1D1D1B"/>
<path d="M105.225 7.00999H99.1286V4.4126H94.8978V7.00999H88.7479V10.2768H105.225V7.00999Z" fill="#1D1D1B"/>
<path d="M45.8858 23.2366C48.0726 20.5589 49.2865 17.06 48.9831 13.2665C48.4475 6.42941 42.8779 0.913305 36.0229 0.440241C32.408 0.19032 29.0608 1.31496 26.4456 3.35003C25.9547 3.73384 25.3745 4.00161 24.7497 4.03732C24.1963 4.06409 23.5179 3.96591 22.8128 3.53747C20.1351 1.35959 16.6451 0.145691 12.8606 0.449167C6.02347 0.993637 0.516287 6.5633 0.0342965 13.4004C-0.22455 17.1314 0.980425 20.5678 3.1226 23.2187C3.30112 23.4419 3.44393 23.6829 3.53319 23.9596C3.676 24.4059 3.79203 25.1021 3.55996 25.8875C3.44393 26.2892 3.22079 26.6551 2.96194 26.9854C0.900094 29.6185 -0.233476 33.0014 0.0342965 36.652C0.543064 43.5159 6.12165 49.0677 12.9855 49.5497C16.8236 49.8175 20.3582 48.5411 23.027 46.2739C23.027 46.2739 24.7497 45.3367 26.3385 46.5596C28.8734 48.5678 32.1134 49.7193 35.6302 49.5765C42.6993 49.2819 48.5279 43.5962 49.0009 36.5359C49.2419 32.9299 48.1083 29.5917 46.0733 26.9854C45.2432 25.9232 45.1539 24.4237 45.8591 23.2812C45.868 23.2634 45.8769 23.2544 45.8858 23.2366Z" fill="white"/>
<path d="M24.6342 25.0032L14.6017 35.0268L25.8214 46.2464C25.991 46.3357 26.1695 46.4339 26.3391 46.5678C28.874 48.5761 32.114 49.7275 35.6308 49.5847C38.9422 49.4419 41.977 48.1298 44.3155 46.0412L44.9939 45.3628L24.6342 25.0032Z" fill="#9B94F2"/>
<path d="M24.6331 24.9946L4.13072 4.49219C1.8011 6.82181 0.274796 9.94582 0.0338014 13.4001C-0.225045 17.131 0.97993 20.5675 3.12211 23.2184C3.30062 23.4326 3.43451 23.6736 3.52377 23.9414L14.6095 35.0272L24.6331 25.0035V24.9946Z" fill="#FF987D"/>
<path d="M45.8593 23.2812C45.8593 23.2812 45.8772 23.2544 45.8861 23.2366C47.1089 21.7371 48.0283 19.9787 48.546 18.0597C48.546 18.0597 48.546 18.0597 48.546 18.0507C48.9476 16.5423 49.1083 14.9356 48.9833 13.2755C48.4478 6.42941 42.8781 0.913305 36.0232 0.440241C34.4076 0.324206 32.8545 0.493795 31.3907 0.886528C31.3907 0.886528 31.3907 0.886528 31.3818 0.886528C29.5698 1.37744 27.8918 2.22539 26.4548 3.35003C25.9638 3.73384 25.3837 4.00161 24.7589 4.03732C24.2055 4.06409 23.5271 3.96591 22.822 3.53747C20.1353 1.35959 16.6454 0.145691 12.8609 0.449167C9.478 0.716939 6.41647 2.22539 4.13148 4.50145L45.0114 45.3814C47.2874 43.0607 48.778 39.9634 49.0101 36.5359C49.2511 32.9299 48.1175 29.5917 46.0825 26.9854C45.2524 25.9232 45.1631 24.4237 45.8683 23.2812H45.8593Z" fill="#EB1669"/>
<path d="M3.52427 23.9412C3.52427 23.9412 3.52427 23.9501 3.52427 23.959C3.66708 24.4053 3.78312 25.1015 3.55105 25.887C3.43501 26.2886 3.21187 26.6546 2.95302 26.9848C0.900102 29.6179 -0.233468 33.0008 0.0343047 36.6514C0.257448 39.6594 1.4535 42.4175 3.31005 44.6043L4.97024 46.2644C7.1749 48.1299 9.9508 49.3349 12.9856 49.5491C16.8236 49.8169 20.3582 48.5405 23.027 46.2734C23.027 46.2734 24.4016 45.5325 25.8208 46.2377L3.52427 23.9412Z" fill="#6CD685"/>
</g>
<defs>
<clipPath id="clip0_1_1036">
<rect width="170.83" height="49.1898" fill="white" transform="translate(0 0.405273)"/>
</clipPath>
</defs>
</svg>
