<svg width="178" height="87" viewBox="0 0 178 87" fill="none" xmlns="http://www.w3.org/2000/svg">
<path d="M174.702 60.1169C174.888 62.291 174.894 65.3043 174.113 68.7236C172.483 75.858 168.436 80.2542 166.596 82.0292C166.608 79.7451 166.844 76.8693 167.655 73.6839C169.347 67.0105 172.657 62.4905 174.708 60.1169H174.702Z" fill="#E6D3C8"/>
<path d="M15.5308 0.771729C12.9651 1.35651 10.0336 2.5536 7.38111 4.94778C0.966676 10.7268 -1.40077 21.3217 0.805541 32.2469C3.47047 26.6949 6.13541 21.0741 8.79414 15.3776C11.081 10.4791 13.3245 5.60824 15.5308 0.771729Z" fill="#E6D3C8"/>
<path d="M154.628 86.8038L20.9538 85.5792C12.1719 85.2421 4.43741 77.4404 3.61314 67.7743L0.297466 28.9308C-0.725125 16.9599 6.77387 6.91541 17.1609 7.05989L156.791 7.58276C167.494 7.72723 175.545 18.2189 174.739 30.4375L172.13 69.9689C171.485 79.7864 163.639 87.1478 154.628 86.8038Z" fill="#E6D3C8"/>
<path d="M157.199 79.7522L23.5251 78.5276C14.7432 78.1905 7.00874 70.3888 6.18447 60.7226L2.86879 21.8792C1.8462 9.90145 9.3514 -0.136198 19.7384 0.00139806L159.368 0.524264C170.072 0.66874 178.122 11.1605 177.317 23.379L174.707 62.9104C174.063 72.7279 166.217 80.0893 157.206 79.7453L157.199 79.7522Z" fill="#F5ECE6"/>
<path d="M153.797 71.4553L26.8102 70.4853C19.8504 70.217 13.7335 64.0389 13.0765 56.3885L10.4488 25.622C9.63691 16.1347 15.5803 8.18168 23.8106 8.29864L155.514 8.71143C163.992 8.82838 170.363 17.1392 169.725 26.8122L167.661 58.1223C167.147 65.8965 160.937 71.7237 153.797 71.4553Z" fill="#F3BD4B"/>
<path d="M155.793 16.4169C145.989 16.1898 34.6627 15.9697 24.8582 15.7427C20.3402 15.6395 16.6279 19.6779 16.6279 24.6933V41.996C20.9847 39.4987 132.323 34.7103 145.146 35.7973C153.469 36.5059 159.933 39.4161 163.893 41.6452C164.507 39.877 163.788 33.3412 163.689 25.2437C163.627 20.4209 160.138 16.5201 155.793 16.4238V16.4169Z" fill="#F09E46"/>
<path d="M160.788 62.9309C160.614 61.5755 156.313 61.0458 153.27 61.1903C148.182 61.4311 142.468 63.7496 142.616 65.3663C142.771 67.0175 149.074 68.2421 154.522 66.756C157.317 65.9924 160.955 64.2243 160.788 62.9309Z" fill="#F09E46"/>
<path d="M47.4623 41.6017V43.6417L64.2623 43.3617C64.7423 43.3617 65.0623 43.455 65.2223 43.6417C65.409 43.8284 65.5023 44.1884 65.5023 44.7217V48.0017C65.5023 48.5084 65.409 48.855 65.2223 49.0417C65.0623 49.2284 64.7423 49.3217 64.2623 49.3217L56.5423 49.4817V52.0017L64.9823 51.8417C65.4623 51.8417 65.7956 51.9217 65.9823 52.0817C66.1956 52.2417 66.3023 52.5484 66.3023 53.0017V56.7617C66.3023 57.215 66.1956 57.5217 65.9823 57.6817C65.7956 57.8417 65.4623 57.9217 64.9823 57.9217L41.3023 58.3217C40.8223 58.3217 40.4756 58.2417 40.2623 58.0817C40.0756 57.9217 39.9823 57.615 39.9823 57.1617V53.4017C39.9823 52.9484 40.0756 52.6417 40.2623 52.4817C40.4756 52.3217 40.8223 52.2417 41.3023 52.2417L49.7423 52.1217V49.6017L42.2223 49.7217C41.609 49.7484 41.209 49.6417 41.0223 49.4017C40.8356 49.1617 40.729 48.695 40.7023 48.0017L40.3823 37.8017C40.3556 37.1084 40.449 36.655 40.6623 36.4417C40.8756 36.2017 41.289 36.0684 41.9023 36.0417L58.9423 35.2017V33.1217L41.0623 33.4417C40.6623 33.4417 40.3823 33.3884 40.2223 33.2817C40.089 33.175 40.0223 32.975 40.0223 32.6817V28.4017C40.0223 28.1084 40.089 27.9084 40.2223 27.8017C40.3823 27.6684 40.6623 27.6017 41.0623 27.6017L64.5423 27.2017C65.1556 27.2017 65.569 27.3217 65.7823 27.5617C65.9956 27.775 66.089 28.2284 66.0623 28.9217L65.7423 39.1217C65.7156 39.7884 65.609 40.2284 65.4223 40.4417C65.2356 40.655 64.8356 40.775 64.2223 40.8017L47.4623 41.6017ZM73.2945 58.3217C72.8145 58.3217 72.4678 58.2417 72.2545 58.0817C72.0678 57.9217 71.9745 57.615 71.9745 57.1617V53.4017C71.9745 52.9484 72.0678 52.6417 72.2545 52.4817C72.4678 52.3217 72.8145 52.2417 73.2945 52.2417L96.9745 51.8417C97.4545 51.8417 97.7878 51.9217 97.9745 52.0817C98.1878 52.2417 98.2945 52.5484 98.2945 53.0017V56.7617C98.2945 57.215 98.1878 57.5217 97.9745 57.6817C97.7878 57.8417 97.4545 57.9217 96.9745 57.9217L73.2945 58.3217ZM91.0545 33.2817L72.9345 33.6817C72.4545 33.6817 72.1078 33.6017 71.8945 33.4417C71.7078 33.2817 71.6145 32.975 71.6145 32.5217V28.7617C71.6145 28.3084 71.7078 28.0017 71.8945 27.8417C72.1078 27.6817 72.4545 27.6017 72.9345 27.6017L96.5345 27.2017C97.1478 27.2017 97.5612 27.335 97.7745 27.6017C97.9878 27.8417 98.0812 28.3084 98.0545 29.0017L97.4545 48.2017C97.4278 48.6284 97.3078 48.9217 97.0945 49.0817C96.8812 49.2417 96.5878 49.3217 96.2145 49.3217H91.5745C91.2012 49.3217 90.9345 49.255 90.7745 49.1217C90.6412 48.9617 90.5878 48.655 90.6145 48.2017L91.0545 33.2817ZM129.007 29.0017C129.007 28.3084 129.113 27.8417 129.327 27.6017C129.567 27.335 129.967 27.2017 130.527 27.2017H134.287C134.873 27.2017 135.273 27.335 135.487 27.6017C135.7 27.8417 135.807 28.3084 135.807 29.0017V48.8417C135.807 49.535 135.7 50.015 135.487 50.2817C135.273 50.5217 134.873 50.6417 134.287 50.6417H130.527C129.967 50.6417 129.567 50.5217 129.327 50.2817C129.113 50.015 129.007 49.535 129.007 48.8417V29.0017ZM112.647 64.0017C112.06 64.0284 111.66 63.9084 111.447 63.6417C111.233 63.375 111.127 62.895 111.127 62.2017V52.2017C111.127 51.5084 111.233 51.0417 111.447 50.8017C111.687 50.535 112.087 50.4017 112.647 50.4017H116.407C116.993 50.4017 117.393 50.535 117.607 50.8017C117.82 51.0417 117.927 51.5084 117.927 52.2017V57.8417L133.727 57.5217C134.207 57.495 134.527 57.5884 134.687 57.8017C134.873 58.015 134.967 58.3884 134.967 58.9217V62.2017C134.967 62.735 134.873 63.095 134.687 63.2817C134.527 63.4684 134.18 63.575 133.647 63.6017L112.647 64.0017ZM114.447 48.4017C112.553 48.4017 110.887 48.095 109.447 47.4817C108.007 46.8684 106.793 46.055 105.807 45.0417C104.847 44.0284 104.113 42.8684 103.607 41.5617C103.127 40.2284 102.887 38.8417 102.887 37.4017C102.887 35.9617 103.127 34.5884 103.607 33.2817C104.113 31.9484 104.847 30.775 105.807 29.7617C106.793 28.7484 108.007 27.935 109.447 27.3217C110.887 26.7084 112.553 26.4017 114.447 26.4017C116.34 26.4017 118.007 26.7084 119.447 27.3217C120.887 27.935 122.087 28.7484 123.047 29.7617C124.033 30.775 124.767 31.9484 125.247 33.2817C125.753 34.5884 126.007 35.9617 126.007 37.4017C126.007 38.8417 125.753 40.2284 125.247 41.5617C124.767 42.8684 124.033 44.0284 123.047 45.0417C122.087 46.055 120.887 46.8684 119.447 47.4817C118.007 48.095 116.34 48.4017 114.447 48.4017ZM114.447 42.3217C115.327 42.3217 116.073 42.175 116.687 41.8817C117.327 41.5884 117.847 41.215 118.247 40.7617C118.647 40.2817 118.94 39.7484 119.127 39.1617C119.34 38.575 119.447 37.9884 119.447 37.4017C119.447 36.815 119.34 36.2284 119.127 35.6417C118.94 35.055 118.647 34.535 118.247 34.0817C117.847 33.6017 117.327 33.215 116.687 32.9217C116.073 32.6284 115.327 32.4817 114.447 32.4817C113.567 32.4817 112.807 32.6284 112.167 32.9217C111.553 33.215 111.047 33.6017 110.647 34.0817C110.247 34.535 109.94 35.055 109.727 35.6417C109.54 36.2284 109.447 36.815 109.447 37.4017C109.447 37.9884 109.54 38.575 109.727 39.1617C109.94 39.7484 110.247 40.2817 110.647 40.7617C111.047 41.215 111.553 41.5884 112.167 41.8817C112.807 42.175 113.567 42.3217 114.447 42.3217Z" fill="white"/>
</svg>
