<svg width="1440" height="2561" viewBox="0 0 1440 2561" fill="none" xmlns="http://www.w3.org/2000/svg">
<g clip-path="url(#clip0_27_103)">
<path d="M1440 0H0V2560H1440V0Z" fill="#C6E4DB"/>
<path d="M510.066 2079.17C510.066 2079.17 551.613 2041.51 586.586 1985.72C568.987 1961.52 546.92 1939.21 519.227 1920.52C493.44 1979.55 459.44 2032.6 459.44 2032.6C459.44 2032.6 478.866 1980.44 488.973 1902.77C466.266 1891.27 440.533 1881.88 411.253 1875.35C397.466 1872.27 383.853 1869.96 370.44 1868.37C370.48 1945.84 377.786 2014.32 377.786 2014.32C377.786 2014.32 347.2 1945.64 335.88 1865.83C287.586 1864.4 242.306 1872.27 201.08 1886.81C218.226 1938.76 243.8 1984.31 243.8 1984.31C243.8 1984.31 201.546 1955.21 165.226 1901.72C91.5998 1936.75 33.7865 1993.51 0.453125 2054.87V2128.12L650.533 2273.72C650.533 2273.72 670.68 2132.49 606.026 2016.03C567.6 2055.47 510.08 2079.16 510.08 2079.16L510.066 2079.17Z" fill="#57967B"/>
<path d="M353.254 2208.39C341.227 2179.81 439.054 2118.6 388.6 2079.59C340.174 2042.12 300.24 2144.28 271.68 2120.55C216.787 2074.92 363 1990.29 334.374 1948.01C293.04 1886.96 250.094 1999.75 220.4 1983.88C180 1962.29 291.187 1779.11 185.787 1755.77C107.867 1738.52 104.467 1883.61 68.2535 1905.92C45.9068 1919.69 31.1069 1887.37 0.440186 1883.97V2379.77C23.1069 2468.83 41.6269 2535.69 41.6269 2535.69L355.174 2453.04C355.174 2453.04 475.454 2327.35 460.84 2250.99C443.08 2158.19 365.28 2236.96 353.254 2208.39Z" fill="#086650"/>
<path d="M922.866 1733.77C862.866 1728.99 808.106 1736.33 759.399 1745.29C753.319 1798.39 739.173 1851.47 739.173 1851.47C739.173 1851.47 739.173 1802.87 730.479 1751.33C703.039 1757.75 677.479 1765.71 653.773 1775.07C670.226 1808.81 676.826 1837.05 676.826 1837.05C676.826 1837.05 658.013 1813.8 628.533 1785.81C533.106 1829.88 470.039 1897.52 431.333 1972.12C473.253 2004.83 500.306 2034.77 500.306 2034.77C500.306 2034.77 469.879 2017.76 419.106 1997.73C370.279 2109.24 372.013 2231.69 399.226 2312.61L1234.64 2051.84C1234.64 2051.84 1179.76 1754.27 922.866 1733.76V1733.77Z" fill="#DE9E9A"/>
<path fill-rule="evenodd" clip-rule="evenodd" d="M1016.49 1979.16C761.067 1919.97 435.107 2182.88 0.440186 2274.52V2560H1149.59C1118.53 2286.57 1187.67 2018.83 1016.49 1979.16Z" fill="#DE9E9A"/>
<path d="M0.440186 2472.52V2560H1072.92C1070.41 2557.96 1068.03 2555.96 1065.28 2553.99C601.134 2220.65 264.44 2407.99 0.440186 2472.52Z" fill="#DCB6AF"/>
<path d="M816.68 1942.13C728.747 1921.31 734.147 2074.76 660.24 2077.41C592.267 2079.85 690.187 1700.13 523.68 1720.61C314.667 1746.33 561.347 2140.61 532.813 2172.05C484.467 2225.31 452.387 2042.16 347.68 2120.89C264.867 2183.17 412.733 2454.67 564.44 2532.23L617.56 2560.44H781.44C815.4 2528.07 828.24 2481.31 828.24 2481.31C828.24 2481.31 989.187 1982.99 816.667 1942.12L816.68 1942.13Z" fill="#BE736D"/>
<path d="M1402.71 1154.61C1144.29 1175.77 1285.23 1557.67 1241.89 1586.93C1168.51 1636.49 1155.12 1573.05 1068.33 1614.71C966.546 1663.56 1055.37 2000.07 1214.13 2137.19L1291.19 2205.88C1346.01 2253.23 1397 2264.61 1439.73 2259.88V1158.87C1429.49 1154.99 1417.28 1153.41 1402.68 1154.6L1402.71 1154.61Z" fill="#79B4A2"/>
<path d="M995.48 1957.77C995.48 1957.77 1172.05 1796.69 1153.65 1710.39C1136.29 1628.95 974.546 1809.92 974.546 1809.92C974.546 1809.92 1159.91 1532.84 1093.05 1483.52C1021.49 1430.73 950.013 1636.63 950.013 1636.63C950.013 1636.63 1019.89 1309.55 883.786 1310.45C749.826 1311.35 887.826 1731.37 887.826 1731.37C887.826 1731.37 802.893 1554.35 728 1634.32C650.013 1717.61 848.12 1956.79 848.12 1956.79C848.12 1956.79 704.2 1831.68 653.506 1931.76C602.826 2031.84 955.04 2385.59 955.04 2385.59L1091.2 2383.84C1091.2 2383.84 1092.07 2278.35 1128.48 2185.29C1174.13 2068.61 1255.31 1954.93 1228.97 1904.81C1181.11 1813.71 995.493 1957.77 995.493 1957.77H995.48Z" fill="#DCB6AF"/>
<path d="M1166.76 1815.41C1066.87 1819.88 1029.6 1960.03 1141.91 1992.83C1243.89 2022.61 1304.63 1965.67 1361.07 1978.91C1401.32 1988.35 1429.15 2019.16 1429.15 2019.16L1426.67 2012.69C1426.67 2012.69 1281.07 1810.28 1166.75 1815.4L1166.76 1815.41Z" fill="#086650"/>
<path d="M1437.11 2049.48L1439.75 2053.03V2021.51C1437.72 2035.89 1436.95 2045.96 1437.11 2049.48Z" fill="#086650"/>
<path d="M1383.44 1825.35L1385.43 1832.31C1385.43 1832.31 1410.57 1814.64 1439.76 1788.63V1500.76C1428.69 1541.81 1424.53 1594.72 1422.21 1651.41C1419.17 1725.53 1383.45 1825.35 1383.45 1825.35H1383.44Z" fill="#086650"/>
<path d="M1323.31 1346.77C1328.79 1269.39 1264.97 1213.2 1207.01 1245.39C1059.41 1327.39 1353.87 1647.19 1353.87 1647.19C1353.87 1647.19 1357.33 1639.81 1353.12 1630.04C1334.48 1586.8 1312.8 1494.92 1323.31 1346.77Z" fill="#086650"/>
<path d="M1093.49 1615.24C946.706 1637.84 949 1795.21 1041.52 1842.84C1134.04 1890.48 1218.39 1853.4 1283.17 1867.93C1367.57 1886.87 1422.93 1995.44 1422.93 1995.44C1422.93 1995.44 1251.2 1590.96 1093.48 1615.24H1093.49Z" fill="#57967B"/>
<path d="M1411.27 1964.15C1411.27 1964.15 1416.73 1928.68 1439.76 1879.83V1680.07C1392.41 1828.41 1411.27 1964.15 1411.27 1964.15Z" fill="#57967B"/>
<path d="M1359.47 1682.59C1359.47 1682.59 1380.52 1571.8 1439.76 1495.65V1275.73C1347.59 1386.76 1359.47 1682.57 1359.47 1682.57V1682.59Z" fill="#57967B"/>
<path d="M1302.87 1058.73C1235.8 1162.28 1339.73 1408.55 1339.73 1408.55C1339.73 1408.55 1349.23 1336.05 1376.48 1269.67C1391.93 1232.01 1422.2 1211.71 1439.75 1179.53V1072.61C1408.27 1020.05 1330.28 1016.39 1302.87 1058.73Z" fill="#57967B"/>
<path d="M1281.24 1556.28C1279.09 1407.41 1237.53 1332.05 1168.31 1371.2C1123.49 1396.53 1129.32 1470.93 1178.65 1540.43C1261.85 1657.61 1370.16 1716.8 1370.16 1716.8C1370.16 1716.8 1282.4 1636.03 1281.25 1556.27L1281.24 1556.28Z" fill="#57967B"/>
<path d="M1185.77 1913.59C1016.45 1918.59 1043.71 2111.32 1169.73 2119.51C1229.24 2123.37 1303.21 2101.93 1362.65 2113.07C1393.05 2118.76 1419.73 2131.27 1439.75 2143.15V2107.64C1388.4 2030.6 1291.2 1910.47 1185.77 1913.59Z" fill="#57967B"/>
<path d="M1364.59 1083.61C1365.11 1080.79 1363.23 1078.07 1360.4 1077.56C1357.61 1077.04 1354.87 1078.92 1354.35 1081.75C1342.8 1145.11 1318.44 1319.97 1341.63 1574.72C1357.01 1743.81 1389.91 1910.69 1439.76 2073.47V2037.15C1395.67 1885.61 1366.27 1730.65 1352 1573.77C1328.93 1320.31 1353.12 1146.55 1364.6 1083.61H1364.59Z" fill="#086650"/>
<path d="M1407.59 1960.08C1407.65 1962.92 1409.96 1965.17 1412.79 1965.17C1412.83 1965.17 1412.87 1965.17 1412.89 1965.17C1415.77 1965.12 1418.05 1962.73 1417.99 1959.85C1417.13 1918.56 1425.01 1873.92 1439.75 1828.92V1797.07C1417.75 1853.61 1406.52 1909.45 1407.57 1960.08H1407.59Z" fill="#086650"/>
<path d="M1137.47 2003.45C1134.6 2003.71 1132.48 2006.23 1132.73 2009.09C1132.99 2011.96 1135.52 2014.05 1138.37 2013.84C1210.4 2007.6 1346.76 2042.69 1439.77 2134.35V2119.76C1393.23 2076.08 1341.33 2049.36 1301.95 2033.79C1233.81 2006.85 1172.32 2000.48 1137.48 2003.47L1137.47 2003.45Z" fill="#086650"/>
<path d="M1211.17 1756.6C1136.36 1715.47 1075.88 1708.03 1051.93 1710.13C1049.07 1710.39 1046.95 1712.91 1047.2 1715.77C1047.45 1718.64 1049.92 1720.75 1052.84 1720.51C1093.73 1716.97 1285.8 1751.09 1410.71 1975.49C1411.65 1977.2 1413.43 1978.17 1415.25 1978.17C1416.11 1978.17 1416.97 1977.96 1417.79 1977.52C1420.29 1976.12 1421.2 1972.95 1419.8 1970.44C1354.11 1852.4 1270.08 1789.01 1211.17 1756.61V1756.6Z" fill="#086650"/>
<path d="M1184.41 1423.79C1183.84 1420.97 1181.11 1419.13 1178.28 1419.72C1175.45 1420.29 1173.64 1423.04 1174.2 1425.85C1190.35 1505.77 1252.75 1624.2 1355.79 1708.61C1356.75 1709.41 1357.92 1709.79 1359.08 1709.79C1360.59 1709.79 1362.08 1709.13 1363.11 1707.88C1364.93 1705.65 1364.6 1702.37 1362.37 1700.55C1261.33 1617.76 1200.19 1501.89 1184.41 1423.77V1423.79Z" fill="#086650"/>
<path d="M1356.21 1671.95C1356.51 1672 1356.81 1672.03 1357.11 1672.03C1359.6 1672.03 1361.8 1670.24 1362.23 1667.71C1380 1564.67 1407.53 1474.49 1439.75 1408.77V1385.53C1402.97 1453.05 1371.84 1550.72 1351.96 1665.93C1351.47 1668.77 1353.37 1671.47 1356.21 1671.95Z" fill="#086650"/>
<path d="M818.426 2239.49C747.453 2270.93 656.026 2242.96 540.733 2298.51C380.093 2375.89 405.573 2560.44 405.573 2560.45H1439.75V2114.67C1404 2099.68 1364.44 2087.85 1320.65 2080.23C1044.49 2032.09 951.453 2180.56 818.413 2239.49H818.426Z" fill="#79B4A2"/>
<path d="M1273.92 2207.37C1256.33 2247.11 1232.49 2284.88 1232.49 2284.88C1232.49 2284.88 1244.27 2247.16 1250.01 2205.05C1227.16 2203.37 1205.4 2203.37 1184.72 2204.89C1189.32 2235.07 1187.6 2258.59 1187.6 2258.59C1187.6 2258.59 1178.63 2235.99 1162.52 2207.12C1077.77 2218.2 1012.44 2255.43 964.334 2303.95C988.947 2339.49 1002.69 2369.29 1002.69 2369.29C1002.69 2369.29 983.2 2348.72 948.64 2320.87C883.72 2395.57 855.414 2491.04 856.92 2560.44H1439.75V2255.91C1428.64 2249.29 1416.63 2243.27 1403.57 2238.03C1358.16 2219.77 1313.89 2212.21 1273.91 2207.37H1273.92Z" fill="#DE9E9A"/>
<path d="M217.88 1959.97C144.773 1875.53 47.853 2111.12 22.733 2077.24C-9.61364 2033.59 229.626 1749.76 147.64 1653.81C82.293 1577.35 36.4397 1725.77 0.439697 1724.96V2559.99H153.146C151.08 2553.17 125.4 2465.79 130.146 2341.39C139.4 2098.41 294.773 2048.76 217.88 1959.96V1959.97Z" fill="#BE736D"/>
<path d="M0.439697 1592.4C12.4397 1512.08 24.4397 1414.71 0.439697 1359.36V1592.4Z" fill="#A8B652"/>
<path d="M1241.82 2316.33C1238.1 2315.03 1234.03 2316.99 1232.74 2320.69C1206.94 2394.21 1192.47 2468.64 1188.06 2560.44H1202.34C1206.72 2470.37 1220.94 2397.37 1246.18 2325.41C1247.48 2321.69 1245.52 2317.63 1241.82 2316.33Z" fill="#086650"/>
<path d="M1266.61 2246.27C1237.83 2235.64 1197.57 2256.8 1186.95 2285.59C1176.32 2314.37 1192.19 2351.69 1226.03 2364.15C1254.83 2374.75 1290.84 2358.07 1301.47 2329.28C1312.09 2300.49 1295.4 2256.89 1266.61 2246.27Z" fill="#D7BDC3"/>
<path d="M1191.76 2173.44C1188.41 2171.37 1184.03 2172.4 1181.95 2175.75C1133.57 2253.99 1059.65 2406.08 1014.43 2560.44H1029.24C1074.09 2408.95 1146.53 2260.12 1194.07 2183.24C1196.15 2179.89 1195.11 2175.49 1191.76 2173.43V2173.44Z" fill="#086650"/>
<path d="M1220.15 2093.76C1170.47 2075.43 1107.27 2106.32 1088.93 2156.01C1070.6 2205.69 1086.39 2258.32 1132.56 2284.25C1192.33 2317.83 1254.56 2281.31 1275.81 2232.81C1305.35 2165.44 1269.84 2112.11 1220.15 2093.77V2093.76Z" fill="white"/>
<path d="M1194.52 2162.21C1180.91 2157.19 1163.59 2165.65 1158.56 2179.28C1153.53 2192.89 1161.47 2205.95 1174.12 2213.05C1190.51 2222.25 1203.95 2213.61 1209.77 2200.32C1217.87 2181.85 1208.13 2167.24 1194.52 2162.21Z" fill="#DCB6AF"/>
<path d="M959.24 2271.61C955.32 2271.89 952.36 2275.29 952.626 2279.23C956.253 2331.21 947.933 2441.75 933.066 2560.45H947.573C962.466 2441.55 970.573 2331.71 966.84 2278.24C966.56 2274.31 963.12 2271.33 959.24 2271.63V2271.61Z" fill="#086650"/>
<path d="M970.267 2216.19C941.48 2205.56 901.227 2226.72 890.6 2255.51C879.973 2284.29 895.84 2321.61 929.68 2334.07C958.48 2344.67 994.493 2327.99 1005.12 2299.2C1015.75 2270.41 999.053 2226.81 970.267 2216.19Z" fill="white"/>
<path d="M127.708 2304.73C124.068 2303.29 119.908 2305.05 118.454 2308.72C99.9209 2355.27 76.2542 2451.87 55.2676 2560.45H69.9342C90.6676 2453.75 113.908 2358.64 131.694 2314C133.148 2310.35 131.361 2306.2 127.708 2304.75V2304.73Z" fill="#086650"/>
<path d="M134.081 2248.57C103.427 2249.93 74.2541 2286.39 75.6141 2317.04C76.9741 2347.69 106.201 2374.55 136.854 2373.21C172.881 2371.65 199.347 2340.93 197.987 2310.28C196.627 2279.63 164.721 2247.23 134.067 2248.59L134.081 2248.57Z" fill="white"/>
<path d="M135.815 2290.04C125.575 2290.49 115.828 2302.67 116.282 2312.91C116.735 2323.15 126.495 2332.12 136.735 2331.67C148.762 2331.15 157.615 2320.88 157.162 2310.64C156.708 2300.4 146.055 2289.57 135.815 2290.03V2290.04Z" fill="#DCB6AF"/>
<path d="M561.427 2560.44H606.747C651.267 2530.08 696.414 2502.96 679.04 2484.59C659.374 2463.8 595.094 2525.28 561.427 2560.44Z" fill="#086650"/>
<path d="M295.187 2514.49C288.707 2525.71 303.947 2542.33 329.12 2560.44H408.027C358.827 2527.37 305.227 2497.13 295.2 2514.49H295.187Z" fill="#086650"/>
<path d="M534.321 2560.44H556.641C588.921 2513.88 655.894 2409.71 629.121 2382.75C603.387 2356.83 556.174 2491.83 534.307 2560.44H534.321Z" fill="#086650"/>
<path d="M503.467 2341.05C459.467 2340.16 480.321 2487.41 493.347 2560.44H525.094C528.974 2488.95 533.347 2341.65 503.467 2341.05Z" fill="#086650"/>
<path d="M373.454 2400.15C346.507 2413.23 402.094 2498.96 446.774 2560.44H482.92C453.934 2498.61 398.027 2388.21 373.454 2400.15Z" fill="#086650"/>
</g>
<defs>
<clipPath id="clip0_27_103">
<rect width="1440" height="2560.44" fill="white"/>
</clipPath>
</defs>
</svg>
