<svg width="362" height="120" viewBox="0 0 362 120" fill="none" xmlns="http://www.w3.org/2000/svg">
<path d="M265.747 32.8831C281.393 36.1 297.033 39.3169 312.679 42.5339C316.759 43.3725 318.402 48.5304 315.616 51.7413C310.588 57.5402 305.56 63.345 300.538 69.1439C305.359 78.3454 310.18 87.5469 315.001 96.7424C317.224 100.99 313.564 105.974 309.048 104.836L259.685 92.3873C254.244 91.0154 251.009 85.1806 252.589 79.5794C256.973 64.01 261.363 48.4405 265.747 32.8711V32.8831Z" fill="#276D5D"/>
<path d="M96.2542 32.8831C80.6081 36.1 64.9677 39.3169 49.3216 42.5339C45.2421 43.3725 43.5987 48.5304 46.3855 51.7413C51.4132 57.5402 56.4408 63.345 61.4627 69.1439C56.6419 78.3454 51.8211 87.5469 47.0003 96.7424C44.7766 100.99 48.4368 105.974 52.9531 104.836L102.316 92.3873C107.757 91.0154 110.992 85.1806 109.412 79.5794C105.028 64.01 100.638 48.4405 96.2542 32.8711V32.8831Z" fill="#276D5D"/>
<path d="M269.858 82.8316C211.23 70.3397 150.77 70.3397 92.148 82.8316C87.9374 83.7298 83.8128 80.9459 82.8733 76.5916C79.648 61.6013 76.4228 46.6109 73.1918 31.6266C72.2294 27.1533 74.9849 22.7335 79.3043 21.8055C146.393 7.39816 215.607 7.39816 282.696 21.8055C287.015 22.7335 289.771 27.1533 288.808 31.6266C285.583 46.6169 282.358 61.6072 279.127 76.5916C278.187 80.9459 274.063 83.7298 269.852 82.8316H269.858Z" fill="#2C7765"/>
<path d="M145.775 49.24H142.015C141.535 49.24 141.189 49.16 140.975 49C140.789 48.84 140.695 48.5333 140.695 48.08V44.56C140.695 44.1067 140.789 43.8 140.975 43.64C141.189 43.48 141.535 43.4 142.015 43.4H150.615C151.229 43.4 151.642 43.5333 151.855 43.8C152.069 44.04 152.162 44.5067 152.135 45.2L151.775 57.24C151.749 57.7733 151.629 58.1467 151.415 58.36C151.229 58.5733 150.922 58.7067 150.495 58.76C149.375 58.8933 148.189 59.0133 146.935 59.12C145.682 59.2267 144.415 59.2533 143.135 59.2C141.242 59.1733 139.389 58.8533 137.575 58.24C135.789 57.6267 134.202 56.7067 132.815 55.48C131.402 54.2533 130.269 52.7067 129.415 50.84C128.562 48.9467 128.135 46.7067 128.135 44.12C128.135 41.4267 128.655 39.1333 129.695 37.24C130.762 35.3467 132.175 33.8133 133.935 32.64C135.669 31.4933 137.642 30.6933 139.855 30.24C142.095 29.7867 144.402 29.6667 146.775 29.88C147.149 29.9333 147.415 30.0267 147.575 30.16C147.762 30.2933 147.855 30.5467 147.855 30.92L147.815 35.04C147.815 35.3867 147.735 35.6267 147.575 35.76C147.415 35.8667 147.149 35.9067 146.775 35.88C145.149 35.8 143.629 35.8933 142.215 36.16C140.802 36.4 139.575 36.8667 138.535 37.56C137.495 38.2533 136.682 39.2 136.095 40.4C135.509 41.5733 135.215 43.04 135.215 44.8C135.215 46.2933 135.469 47.5733 135.975 48.64C136.482 49.7067 137.189 50.5733 138.095 51.24C139.002 51.9333 140.069 52.44 141.295 52.76C142.522 53.08 143.855 53.2133 145.295 53.16H145.655L145.775 49.24ZM155.022 58.52C154.568 58.3867 154.262 58.2 154.102 57.96C153.942 57.6933 153.955 57.28 154.142 56.72L162.422 31.6C162.635 30.9333 162.888 30.4667 163.182 30.2C163.475 29.9333 163.942 29.8 164.582 29.8H168.782C169.422 29.8 169.888 29.9333 170.182 30.2C170.475 30.4667 170.728 30.9333 170.942 31.6L179.222 56.72C179.408 57.28 179.422 57.6933 179.262 57.96C179.102 58.2 178.795 58.3867 178.342 58.52L174.582 59.56C173.808 59.7733 173.288 59.4667 173.022 58.64L171.542 53.84H161.782L160.342 58.64C160.075 59.4667 159.555 59.7733 158.782 59.56L155.022 58.52ZM166.662 37.8L163.622 47.76H169.702L166.662 37.8ZM201.518 31.28C201.705 30.64 201.918 30.24 202.158 30.08C202.398 29.8933 202.811 29.8 203.398 29.8H207.078C207.691 29.8 208.158 29.92 208.478 30.16C208.825 30.4 209.038 30.92 209.118 31.72L211.918 57.56C211.971 58.0133 211.958 58.3467 211.878 58.56C211.798 58.7733 211.558 58.9067 211.158 58.96L207.118 59.44C206.665 59.4933 206.358 59.4667 206.198 59.36C206.038 59.2533 205.931 59.0267 205.878 58.68L204.038 42.6L199.318 57.92C199.185 58.3733 198.998 58.6933 198.758 58.88C198.545 59.0933 198.211 59.2 197.758 59.2H195.758C195.305 59.2 194.958 59.0933 194.718 58.88C194.505 58.6933 194.331 58.3733 194.198 57.92L189.438 42.6L187.638 58.68C187.585 59.0267 187.478 59.2533 187.318 59.36C187.158 59.4667 186.851 59.4933 186.398 59.44L182.358 58.96C181.958 58.9067 181.718 58.7733 181.638 58.56C181.558 58.3467 181.545 58.0133 181.598 57.56L184.398 31.72C184.478 30.92 184.678 30.4 184.998 30.16C185.345 29.92 185.825 29.8 186.438 29.8H190.118C190.705 29.8 191.118 29.8933 191.358 30.08C191.598 30.24 191.811 30.64 191.998 31.28L196.758 47.96L201.518 31.28ZM222.772 47.32L222.892 53.12H231.772C232.332 53.12 232.746 53.24 233.012 53.48C233.279 53.6933 233.412 54.0667 233.412 54.6V57.68C233.412 58.24 233.279 58.6267 233.012 58.84C232.746 59.08 232.332 59.2 231.772 59.2H217.972C217.279 59.2 216.812 59.04 216.572 58.72C216.332 58.4267 216.199 57.88 216.172 57.08L215.812 31.88C215.786 31.1067 215.906 30.5733 216.172 30.28C216.466 29.96 216.959 29.8 217.652 29.8H233.052C233.612 29.8 234.026 29.9067 234.292 30.12C234.559 30.3333 234.692 30.72 234.692 31.28V34.4C234.692 34.9333 234.559 35.32 234.292 35.56C234.026 35.7733 233.612 35.88 233.052 35.88H222.612L222.692 41.24H231.652C232.212 41.24 232.626 41.3467 232.892 41.56C233.159 41.7733 233.292 42.16 233.292 42.72V45.84C233.292 46.4 233.159 46.7867 232.892 47C232.626 47.2133 232.212 47.32 231.652 47.32H222.772Z" fill="#EFEFEF"/>
</svg>
