<svg width="971" height="105" viewBox="0 0 971 105" fill="none" xmlns="http://www.w3.org/2000/svg">
<g clip-path="url(#clip0_1_691)">
<path d="M916.804 8.44775H54.1964C24.2646 8.44775 0 30.0617 0 56.7239C0 83.3861 24.2646 105 54.1964 105H916.804C946.735 105 971 83.3861 971 56.7239C971 30.0617 946.735 8.44775 916.804 8.44775Z" fill="#E6D3C8"/>
<path d="M916.804 0H54.1964C24.2646 0 0 21.614 0 48.2761C0 74.9383 24.2646 96.5523 54.1964 96.5523H916.804C946.735 96.5523 971 74.9383 971 48.2761C971 21.614 946.735 0 916.804 0Z" fill="#F5ECE6"/>
<path d="M911.944 72.6755H58.4698C43.3379 72.6755 31.0782 61.755 31.0782 48.2761C31.0782 34.7971 43.3379 23.8767 58.4698 23.8767H911.944C927.075 23.8767 939.335 34.7971 939.335 48.2761C939.335 61.755 927.075 72.6755 911.944 72.6755Z" fill="#E6D3C8"/>
<path d="M614.708 24.493V72.0593C614.708 74.4072 613.78 76.5757 612.221 78.2606C610.207 80.4447 607.151 81.8409 603.727 81.8409H57.7167C55.8427 81.8409 53.995 81.7239 52.1998 81.4899C47.9002 80.9361 43.8283 79.7582 40.0978 78.05C35.6581 76.0141 31.7262 73.2372 28.5037 69.8986C22.908 64.103 19.5016 56.6069 19.4753 48.3854C19.4403 39.0718 23.6699 30.6475 30.509 24.5476C34.581 20.9205 39.5812 18.1202 45.1681 16.4509C48.9335 15.3277 52.9617 14.7192 57.1562 14.7192H603.727C604.068 14.7192 604.401 14.7348 604.734 14.7582C610.33 15.2107 614.708 19.3994 614.708 24.493Z" fill="#56ACB8"/>
<path d="M532.255 52.16C532.255 51.0933 531.921 50.1867 531.255 49.44C530.588 48.6667 529.721 48.28 528.655 48.28C527.588 48.28 526.708 48.64 526.015 49.36C525.348 50.0533 525.015 50.9867 525.015 52.16C525.015 53.2267 525.348 54.1333 526.015 54.88C526.708 55.6267 527.588 56 528.655 56C529.721 56 530.588 55.6267 531.255 54.88C531.921 54.1333 532.255 53.2267 532.255 52.16ZM526.095 43.92C526.761 43.7067 527.428 43.52 528.095 43.36C528.761 43.2 529.468 43.12 530.215 43.12C531.441 43.12 532.561 43.3333 533.575 43.76C534.615 44.16 535.508 44.7333 536.255 45.48C537.001 46.2533 537.575 47.2 537.975 48.32C538.375 49.4133 538.575 50.6533 538.575 52.04C538.575 53.64 538.308 55.04 537.775 56.24C537.268 57.44 536.548 58.44 535.615 59.24C534.655 60.04 533.535 60.6267 532.255 61C530.975 61.4 529.575 61.6 528.055 61.6C526.748 61.6 525.495 61.3733 524.295 60.92C523.121 60.4667 522.081 59.76 521.175 58.8C520.268 57.8667 519.548 56.6933 519.015 55.28C518.481 53.84 518.215 52.1333 518.215 50.16C518.215 48.24 518.495 46.4267 519.055 44.72C519.641 42.9867 520.415 41.36 521.375 39.84C522.308 38.32 523.361 36.92 524.535 35.64C525.735 34.3333 526.961 33.1467 528.215 32.08C528.615 31.7867 528.975 31.6267 529.295 31.6C529.641 31.5733 529.988 31.7333 530.335 32.08L532.335 34.08C532.708 34.4533 532.935 34.84 533.015 35.24C533.121 35.6133 532.908 35.9867 532.375 36.36C531.761 36.8133 531.135 37.36 530.495 38C529.855 38.64 529.241 39.3067 528.655 40C528.068 40.6933 527.548 41.3867 527.095 42.08C526.641 42.7467 526.308 43.36 526.095 43.92ZM548.208 46.4C548.208 48.1333 548.315 49.6 548.528 50.8C548.742 52 549.048 52.9733 549.448 53.72C549.822 54.4667 550.275 55.0133 550.808 55.36C551.342 55.68 551.942 55.84 552.608 55.84C553.275 55.84 553.875 55.68 554.408 55.36C554.942 55.0133 555.408 54.4667 555.808 53.72C556.182 52.9733 556.475 52 556.688 50.8C556.902 49.6 557.008 48.1333 557.008 46.4C557.008 44.6933 556.902 43.2667 556.688 42.12C556.475 40.9733 556.182 40.0533 555.808 39.36C555.408 38.6667 554.942 38.1733 554.408 37.88C553.875 37.5867 553.275 37.44 552.608 37.44C551.942 37.44 551.342 37.5867 550.808 37.88C550.275 38.1733 549.822 38.6667 549.448 39.36C549.048 40.0533 548.742 40.9733 548.528 42.12C548.315 43.2667 548.208 44.6933 548.208 46.4ZM541.768 46.48C541.768 44.1867 542.022 42.12 542.528 40.28C543.035 38.4133 543.755 36.8267 544.688 35.52C545.622 34.2133 546.755 33.2133 548.088 32.52C549.422 31.8 550.915 31.44 552.568 31.44C554.248 31.44 555.755 31.8 557.088 32.52C558.448 33.2133 559.608 34.2133 560.568 35.52C561.502 36.8267 562.222 38.4133 562.728 40.28C563.235 42.12 563.488 44.1867 563.488 46.48C563.488 48.8 563.235 50.8933 562.728 52.76C562.222 54.6 561.502 56.1733 560.568 57.48C559.608 58.7867 558.448 59.7867 557.088 60.48C555.755 61.2 554.248 61.56 552.568 61.56C550.915 61.56 549.422 61.2 548.088 60.48C546.755 59.7867 545.622 58.7867 544.688 57.48C543.755 56.1733 543.035 54.6 542.528 52.76C542.022 50.8933 541.768 48.8 541.768 46.48ZM573.304 43.92C572.504 43.92 571.744 43.7733 571.024 43.48C570.331 43.1867 569.717 42.7733 569.184 42.24C568.651 41.7067 568.224 41.08 567.904 40.36C567.584 39.6133 567.424 38.8 567.424 37.92C567.424 37.0133 567.584 36.1867 567.904 35.44C568.224 34.6933 568.651 34.0533 569.184 33.52C569.717 32.9867 570.331 32.5733 571.024 32.28C571.744 31.96 572.504 31.8 573.304 31.8C574.104 31.8 574.851 31.96 575.544 32.28C576.264 32.5733 576.891 32.9867 577.424 33.52C577.957 34.0533 578.384 34.6933 578.704 35.44C579.024 36.1867 579.184 37.0133 579.184 37.92C579.184 38.8 579.024 39.6133 578.704 40.36C578.384 41.08 577.957 41.7067 577.424 42.24C576.891 42.7733 576.264 43.1867 575.544 43.48C574.851 43.7733 574.104 43.92 573.304 43.92ZM589.264 61.2C588.464 61.2 587.704 61.04 586.984 60.72C586.291 60.4267 585.677 60.0133 585.144 59.48C584.611 58.9467 584.184 58.32 583.864 57.6C583.544 56.8533 583.384 56.0533 583.384 55.2C583.384 54.2933 583.544 53.4667 583.864 52.72C584.184 51.9733 584.611 51.32 585.144 50.76C585.677 50.2267 586.291 49.8133 586.984 49.52C587.704 49.2 588.464 49.04 589.264 49.04C590.064 49.04 590.811 49.2 591.504 49.52C592.224 49.8133 592.851 50.2267 593.384 50.76C593.917 51.32 594.344 51.9733 594.664 52.72C594.984 53.4667 595.144 54.2933 595.144 55.2C595.144 56.0533 594.984 56.8533 594.664 57.6C594.344 58.32 593.917 58.9467 593.384 59.48C592.851 60.0133 592.224 60.4267 591.504 60.72C590.811 61.04 590.064 61.2 589.264 61.2ZM573.304 39.4C573.837 39.4 574.211 39.2533 574.424 38.96C574.664 38.6667 574.784 38.3333 574.784 37.96C574.784 37.5867 574.664 37.24 574.424 36.92C574.211 36.5733 573.837 36.4 573.304 36.4C572.771 36.4 572.384 36.5733 572.144 36.92C571.931 37.24 571.824 37.5867 571.824 37.96C571.824 38.3333 571.931 38.6667 572.144 38.96C572.384 39.2533 572.771 39.4 573.304 39.4ZM589.264 56.68C589.797 56.68 590.171 56.5333 590.384 56.24C590.624 55.92 590.744 55.5867 590.744 55.24C590.744 54.84 590.624 54.48 590.384 54.16C590.171 53.84 589.797 53.68 589.264 53.68C588.731 53.68 588.344 53.84 588.104 54.16C587.891 54.48 587.784 54.84 587.784 55.24C587.784 55.5867 587.891 55.92 588.104 56.24C588.344 56.5333 588.731 56.68 589.264 56.68ZM585.584 32.56C586.117 31.6533 586.837 31.4533 587.744 31.96L590.144 33.24C590.704 33.5333 590.984 33.8667 590.984 34.24C590.984 34.5867 590.837 35.0133 590.544 35.52L576.464 60.2C576.117 60.84 575.704 61.2 575.224 61.28C574.744 61.3867 574.197 61.2667 573.584 60.92L571.984 60.04C571.637 59.8533 571.384 59.6533 571.224 59.44C571.091 59.2267 571.024 59 571.024 58.76C571.024 58.5467 571.064 58.32 571.144 58.08C571.251 57.84 571.384 57.5867 571.544 57.32L585.584 32.56Z" fill="white"/>
</g>
<defs>
<clipPath id="clip0_1_691">
<rect width="971" height="105" fill="white"/>
</clipPath>
</defs>
</svg>
