<svg width="283" height="107" viewBox="0 0 283 107" fill="none" xmlns="http://www.w3.org/2000/svg">
<g clip-path="url(#clip0_1_716)">
<path d="M283 83.6837V34.5138C283 21.6444 270.233 11.2117 254.485 11.2117L28.5151 11.2117C12.7666 11.2117 0 21.6444 0 34.5138V83.6837C0 96.5531 12.7666 106.986 28.5151 106.986L254.485 106.986C270.233 106.986 283 96.5531 283 83.6837Z" fill="#457278"/>
<path d="M261.423 11.9062H21.5771C9.6604 11.9062 0 19.8006 0 29.5388V79.7008C0 89.439 9.6604 97.3333 21.5771 97.3333H261.423C273.34 97.3333 283 89.439 283 79.7008V29.5388C283 19.8006 273.34 11.9062 261.423 11.9062Z" fill="#528B93"/>
<path d="M261.423 4.13879H21.5771C9.6604 4.13879 0 12.0331 0 21.7713V71.9333C0 81.6715 9.6604 89.5659 21.5771 89.5659H261.423C273.34 89.5659 283 81.6715 283 71.9333V21.7713C283 12.0331 273.34 4.13879 261.423 4.13879Z" fill="#56ACB8"/>
<path d="M263.296 0H19.7038C8.81123 0 0 7.20042 0 16.1017V23.8266C0 14.9253 8.81123 7.72486 19.7038 7.72486H263.296C274.171 7.72486 283 14.9253 283 23.8266V16.1017C283 7.2146 274.189 0 263.296 0Z" fill="#90D0D9"/>
<path d="M22.4964 13.2953C23.884 15.2513 21.3516 18.568 16.8419 20.6941C12.3323 22.8202 7.56239 22.962 6.1748 20.9918C4.7872 19.0358 7.31956 15.719 11.8292 13.5929C16.3389 11.4668 21.1088 11.3251 22.4964 13.2953Z" fill="#56ACB8"/>
<path d="M91.5412 37.5L79.9912 37.8C79.3912 37.8333 78.9579 37.75 78.6912 37.55C78.4579 37.3167 78.3412 36.9167 78.3412 36.35V31.65C78.3412 31.0833 78.4579 30.7167 78.6912 30.55C78.9579 30.35 79.3912 30.2333 79.9912 30.2L98.5412 29.7C99.3079 29.6667 99.8245 29.8167 100.091 30.15C100.391 30.4833 100.508 31.0833 100.441 31.95L99.4912 43.95L103.241 43.85V32.95C103.241 32.0833 103.375 31.5 103.641 31.2C103.941 30.8667 104.441 30.7 105.141 30.7H109.841C110.575 30.7 111.075 30.8667 111.341 31.2C111.608 31.5 111.741 32.0833 111.741 32.95V63.75C111.741 64.6167 111.608 65.2167 111.341 65.55C111.075 65.85 110.575 66 109.841 66H105.141C104.441 66 103.941 65.85 103.641 65.55C103.375 65.2167 103.241 64.6167 103.241 63.75V51.45L98.8912 51.55L97.8912 64.75C97.8245 65.6167 97.6745 66.2 97.4412 66.5C97.2079 66.8333 96.7245 67 95.9912 67H91.3412C90.6412 67 90.1245 66.8333 89.7912 66.5C89.4912 66.2 89.3745 65.6167 89.4412 64.75L91.5412 37.5ZM114.141 32.45C114.141 31.5833 114.275 31 114.541 30.7C114.841 30.3667 115.341 30.2 116.041 30.2H120.741C121.475 30.2 121.975 30.3667 122.241 30.7C122.508 31 122.641 31.5833 122.641 32.45V63.25C122.641 64.1167 122.508 64.7167 122.241 65.05C121.975 65.35 121.475 65.5 120.741 65.5H116.041C115.341 65.5 114.841 65.35 114.541 65.05C114.275 64.7167 114.141 64.1167 114.141 63.25V32.45ZM159.578 31.95C159.578 31.0833 159.711 30.5 159.978 30.2C160.278 29.8667 160.778 29.7 161.478 29.7H166.178C166.911 29.7 167.411 29.8667 167.678 30.2C167.944 30.5 168.078 31.0833 168.078 31.95V52.25C168.078 53.1167 167.944 53.7167 167.678 54.05C167.411 54.35 166.911 54.5 166.178 54.5H161.478C160.778 54.5 160.278 54.35 159.978 54.05C159.711 53.7167 159.578 53.1167 159.578 52.25V31.95ZM139.878 75.7C139.178 75.7333 138.694 75.6 138.428 75.3C138.161 75 138.011 74.5667 137.978 74L137.528 59.6C137.494 58.9333 137.578 58.45 137.778 58.15C137.978 57.85 138.444 57.6833 139.178 57.65L163.128 57.15C164.628 57.0833 165.344 57.7333 165.278 59.1L164.828 73.5C164.794 74.0667 164.644 74.4833 164.378 74.75C164.111 75.0167 163.628 75.1667 162.928 75.2L139.878 75.7ZM146.278 69.1L156.528 68.85V63.95L146.278 64.2V69.1ZM141.378 55.2C139.011 55.2 136.928 54.85 135.128 54.15C133.328 53.4167 131.811 52.45 130.578 51.25C129.378 50.05 128.461 48.65 127.828 47.05C127.228 45.45 126.928 43.75 126.928 41.95C126.928 40.15 127.228 38.45 127.828 36.85C128.461 35.25 129.378 33.85 130.578 32.65C131.811 31.45 133.328 30.5 135.128 29.8C136.928 29.0667 139.011 28.7 141.378 28.7C143.744 28.7 145.828 29.0667 147.628 29.8C149.428 30.5 150.928 31.45 152.128 32.65C153.361 33.85 154.278 35.25 154.878 36.85C155.511 38.45 155.828 40.15 155.828 41.95C155.828 43.75 155.511 45.45 154.878 47.05C154.278 48.65 153.361 50.05 152.128 51.25C150.928 52.45 149.428 53.4167 147.628 54.15C145.828 54.85 143.744 55.2 141.378 55.2ZM141.378 47.6C142.478 47.6 143.411 47.45 144.178 47.15C144.978 46.8167 145.628 46.4 146.128 45.9C146.628 45.3667 146.994 44.7667 147.228 44.1C147.494 43.4 147.628 42.6833 147.628 41.95C147.628 41.2167 147.494 40.5167 147.228 39.85C146.994 39.1833 146.628 38.5833 146.128 38.05C145.628 37.5167 144.978 37.1 144.178 36.8C143.411 36.4667 142.478 36.3 141.378 36.3C140.278 36.3 139.328 36.4667 138.528 36.8C137.761 37.1 137.128 37.5167 136.628 38.05C136.128 38.5833 135.744 39.1833 135.478 39.85C135.244 40.5167 135.128 41.2167 135.128 41.95C135.128 42.6833 135.244 43.4 135.478 44.1C135.744 44.7667 136.128 45.3667 136.628 45.9C137.128 46.4 137.761 46.8167 138.528 47.15C139.328 47.45 140.278 47.6 141.378 47.6ZM195.437 39.5L189.937 42.15C189.504 42.35 189.137 42.4333 188.837 42.4C188.537 42.3333 188.254 42.05 187.987 41.55L186.237 37.85C185.971 37.25 185.887 36.8 185.987 36.5C186.121 36.2 186.371 35.95 186.737 35.75L194.837 31.3C195.204 31.1333 195.521 31 195.787 30.9C196.054 30.8 196.471 30.75 197.037 30.75H201.437C202.304 30.75 202.904 30.95 203.237 31.35C203.571 31.7167 203.737 32.3833 203.737 33.35L203.787 64.85C203.787 65.85 203.621 66.5333 203.287 66.9C202.954 67.3 202.354 67.5 201.487 67.5H197.787C196.921 67.5 196.321 67.3 195.987 66.9C195.654 66.5333 195.487 65.85 195.487 64.85L195.437 39.5Z" fill="white"/>
</g>
<defs>
<clipPath id="clip0_1_716">
<rect width="283" height="107" fill="white"/>
</clipPath>
</defs>
</svg>
