<svg width="283" height="107" viewBox="0 0 283 107" fill="none" xmlns="http://www.w3.org/2000/svg">
<g clip-path="url(#clip0_1_730)">
<path d="M283 83.6837V34.5138C283 21.6444 270.233 11.2117 254.485 11.2117L28.5151 11.2117C12.7666 11.2117 0 21.6444 0 34.5138V83.6837C0 96.5531 12.7666 106.986 28.5151 106.986L254.485 106.986C270.233 106.986 283 96.5531 283 83.6837Z" fill="#B07110"/>
<path d="M261.423 11.9062H21.5771C9.6604 11.9062 0 19.8006 0 29.5388V79.7008C0 89.439 9.6604 97.3333 21.5771 97.3333H261.423C273.34 97.3333 283 89.439 283 79.7008V29.5388C283 19.8006 273.34 11.9062 261.423 11.9062Z" fill="#DA972F"/>
<path d="M261.423 4.13879H21.5771C9.6604 4.13879 0 12.0331 0 21.7713V71.9333C0 81.6715 9.6604 89.5659 21.5771 89.5659H261.423C273.34 89.5659 283 81.6715 283 71.9333V21.7713C283 12.0331 273.34 4.13879 261.423 4.13879Z" fill="#F9C16D"/>
<path d="M263.296 0H19.7038C8.81123 0 0 7.20042 0 16.1017V23.8266C0 14.9253 8.81123 7.72486 19.7038 7.72486H263.296C274.171 7.72486 283 14.9253 283 23.8266V16.1017C283 7.2146 274.189 0 263.296 0Z" fill="#FDDAA4"/>
<path d="M22.4964 13.2953C23.884 15.2513 21.3516 18.568 16.8419 20.6941C12.3323 22.8202 7.56239 22.962 6.1748 20.9918C4.7872 19.0358 7.31956 15.719 11.8292 13.5929C16.3389 11.4668 21.1088 11.3251 22.4964 13.2953Z" fill="#FDDAA4"/>
<path d="M87.8059 37.5L76.2559 37.8C75.6559 37.8333 75.2225 37.75 74.9559 37.55C74.7225 37.3167 74.6059 36.9167 74.6059 36.35V31.65C74.6059 31.0833 74.7225 30.7167 74.9559 30.55C75.2225 30.35 75.6559 30.2333 76.2559 30.2L94.8059 29.7C95.5725 29.6667 96.0892 29.8167 96.3559 30.15C96.6559 30.4833 96.7725 31.0833 96.7059 31.95L95.7559 43.95L99.5059 43.85V32.95C99.5059 32.0833 99.6392 31.5 99.9059 31.2C100.206 30.8667 100.706 30.7 101.406 30.7H106.106C106.839 30.7 107.339 30.8667 107.606 31.2C107.873 31.5 108.006 32.0833 108.006 32.95V63.75C108.006 64.6167 107.873 65.2167 107.606 65.55C107.339 65.85 106.839 66 106.106 66H101.406C100.706 66 100.206 65.85 99.9059 65.55C99.6392 65.2167 99.5059 64.6167 99.5059 63.75V51.45L95.1559 51.55L94.1559 64.75C94.0892 65.6167 93.9392 66.2 93.7059 66.5C93.4725 66.8333 92.9892 67 92.2559 67H87.6059C86.9059 67 86.3892 66.8333 86.0559 66.5C85.7559 66.2 85.6392 65.6167 85.7059 64.75L87.8059 37.5ZM110.406 32.45C110.406 31.5833 110.539 31 110.806 30.7C111.106 30.3667 111.606 30.2 112.306 30.2H117.006C117.739 30.2 118.239 30.3667 118.506 30.7C118.773 31 118.906 31.5833 118.906 32.45V63.25C118.906 64.1167 118.773 64.7167 118.506 65.05C118.239 65.35 117.739 65.5 117.006 65.5H112.306C111.606 65.5 111.106 65.35 110.806 65.05C110.539 64.7167 110.406 64.1167 110.406 63.25V32.45ZM155.842 31.95C155.842 31.0833 155.976 30.5 156.242 30.2C156.542 29.8667 157.042 29.7 157.742 29.7H162.442C163.176 29.7 163.676 29.8667 163.942 30.2C164.209 30.5 164.342 31.0833 164.342 31.95V52.25C164.342 53.1167 164.209 53.7167 163.942 54.05C163.676 54.35 163.176 54.5 162.442 54.5H157.742C157.042 54.5 156.542 54.35 156.242 54.05C155.976 53.7167 155.842 53.1167 155.842 52.25V31.95ZM136.142 75.7C135.442 75.7333 134.959 75.6 134.692 75.3C134.426 75 134.276 74.5667 134.242 74L133.792 59.6C133.759 58.9333 133.842 58.45 134.042 58.15C134.242 57.85 134.709 57.6833 135.442 57.65L159.392 57.15C160.892 57.0833 161.609 57.7333 161.542 59.1L161.092 73.5C161.059 74.0667 160.909 74.4833 160.642 74.75C160.376 75.0167 159.892 75.1667 159.192 75.2L136.142 75.7ZM142.542 69.1L152.792 68.85V63.95L142.542 64.2V69.1ZM137.642 55.2C135.276 55.2 133.192 54.85 131.392 54.15C129.592 53.4167 128.076 52.45 126.842 51.25C125.642 50.05 124.726 48.65 124.092 47.05C123.492 45.45 123.192 43.75 123.192 41.95C123.192 40.15 123.492 38.45 124.092 36.85C124.726 35.25 125.642 33.85 126.842 32.65C128.076 31.45 129.592 30.5 131.392 29.8C133.192 29.0667 135.276 28.7 137.642 28.7C140.009 28.7 142.092 29.0667 143.892 29.8C145.692 30.5 147.192 31.45 148.392 32.65C149.626 33.85 150.542 35.25 151.142 36.85C151.776 38.45 152.092 40.15 152.092 41.95C152.092 43.75 151.776 45.45 151.142 47.05C150.542 48.65 149.626 50.05 148.392 51.25C147.192 52.45 145.692 53.4167 143.892 54.15C142.092 54.85 140.009 55.2 137.642 55.2ZM137.642 47.6C138.742 47.6 139.676 47.45 140.442 47.15C141.242 46.8167 141.892 46.4 142.392 45.9C142.892 45.3667 143.259 44.7667 143.492 44.1C143.759 43.4 143.892 42.6833 143.892 41.95C143.892 41.2167 143.759 40.5167 143.492 39.85C143.259 39.1833 142.892 38.5833 142.392 38.05C141.892 37.5167 141.242 37.1 140.442 36.8C139.676 36.4667 138.742 36.3 137.642 36.3C136.542 36.3 135.592 36.4667 134.792 36.8C134.026 37.1 133.392 37.5167 132.892 38.05C132.392 38.5833 132.009 39.1833 131.742 39.85C131.509 40.5167 131.392 41.2167 131.392 41.95C131.392 42.6833 131.509 43.4 131.742 44.1C132.009 44.7667 132.392 45.3667 132.892 45.9C133.392 46.4 134.026 46.8167 134.792 47.15C135.592 47.45 136.542 47.6 137.642 47.6ZM186.052 66.8C185.519 66.6333 185.119 66.3833 184.852 66.05C184.619 65.7167 184.585 65.1667 184.752 64.4L185.352 61C185.552 59.8667 186.219 59.45 187.352 59.75C188.319 60.0167 189.335 60.25 190.402 60.45C191.502 60.6167 192.635 60.7 193.802 60.7C195.469 60.7 196.802 60.4167 197.802 59.85C198.835 59.2833 199.352 58.3 199.352 56.9C199.352 55.3667 198.819 54.3 197.752 53.7C196.685 53.1 195.319 52.8 193.652 52.8H190.302C189.602 52.8 189.085 52.6667 188.752 52.4C188.419 52.1 188.252 51.6 188.252 50.9V47.6C188.252 46.9333 188.419 46.4667 188.752 46.2C189.085 45.9 189.602 45.75 190.302 45.75H192.752C193.652 45.75 194.502 45.6833 195.302 45.55C196.102 45.4167 196.802 45.1833 197.402 44.85C198.002 44.55 198.469 44.15 198.802 43.65C199.169 43.1167 199.352 42.45 199.352 41.65C199.352 40.4167 198.902 39.4667 198.002 38.8C197.135 38.1333 195.702 37.8 193.702 37.8C192.169 37.8 190.852 38 189.752 38.4C188.652 38.8 187.602 39.1833 186.602 39.55C186.135 39.7167 185.752 39.7667 185.452 39.7C185.152 39.6333 184.885 39.2667 184.652 38.6L183.452 34.95C183.252 34.35 183.219 33.9333 183.352 33.7C183.485 33.4333 183.785 33.1667 184.252 32.9C185.519 32.2 187.019 31.6 188.752 31.1C190.485 30.5667 192.569 30.3 195.002 30.3C196.935 30.3 198.702 30.5333 200.302 31C201.902 31.4667 203.269 32.1333 204.402 33C205.535 33.8667 206.402 34.9333 207.002 36.2C207.635 37.4667 207.952 38.9 207.952 40.5C207.952 41.7667 207.752 42.8667 207.352 43.8C206.952 44.7333 206.469 45.5333 205.902 46.2C205.335 46.9 204.735 47.4833 204.102 47.95C203.502 48.3833 202.969 48.75 202.502 49.05C204.302 49.9167 205.535 51.0833 206.202 52.55C206.902 53.9833 207.252 55.4333 207.252 56.9C207.252 59 206.869 60.75 206.102 62.15C205.335 63.55 204.335 64.6833 203.102 65.55C201.835 66.4167 200.419 67.0333 198.852 67.4C197.285 67.7667 195.719 67.95 194.152 67.95C192.485 67.95 191.052 67.85 189.852 67.65C188.685 67.45 187.419 67.1667 186.052 66.8Z" fill="white"/>
</g>
<defs>
<clipPath id="clip0_1_730">
<rect width="283" height="107" fill="white"/>
</clipPath>
</defs>
</svg>
