<svg width="283" height="107" viewBox="0 0 283 107" fill="none" xmlns="http://www.w3.org/2000/svg">
<g clip-path="url(#clip0_1_709)">
<path d="M283 83.6837V34.5138C283 21.6444 270.233 11.2117 254.485 11.2117L28.5151 11.2117C12.7666 11.2117 0 21.6444 0 34.5138V83.6837C0 96.5531 12.7666 106.986 28.5151 106.986L254.485 106.986C270.233 106.986 283 96.5531 283 83.6837Z" fill="#954E49"/>
<path d="M261.423 11.9062H21.5771C9.6604 11.9062 0 19.8006 0 29.5388V79.7008C0 89.439 9.6604 97.3333 21.5771 97.3333H261.423C273.34 97.3333 283 89.439 283 79.7008V29.5388C283 19.8006 273.34 11.9062 261.423 11.9062Z" fill="#BE736D"/>
<path d="M261.423 4.13892H21.5771C9.6604 4.13892 0 12.0333 0 21.7715V71.9335C0 81.6716 9.6604 89.566 21.5771 89.566H261.423C273.34 89.566 283 81.6716 283 71.9335V21.7715C283 12.0333 273.34 4.13892 261.423 4.13892Z" fill="#C88B8A"/>
<path d="M263.296 0H19.7038C8.81123 0 0 7.20042 0 16.1017V23.8266C0 14.9253 8.81123 7.72486 19.7038 7.72486H263.296C274.171 7.72486 283 14.9253 283 23.8266V16.1017C283 7.2146 274.189 0 263.296 0Z" fill="#E0AAA9"/>
<path d="M22.4964 13.2953C23.884 15.2513 21.3516 18.568 16.8419 20.6941C12.3323 22.8202 7.56239 22.962 6.1748 20.9918C4.7872 19.0358 7.31956 15.719 11.8292 13.5929C16.3389 11.4668 21.1088 11.3251 22.4964 13.2953Z" fill="#E0AAA9"/>
<path d="M127.005 44.35C127.005 43.35 127.272 42.4167 127.805 41.55C128.338 40.6833 129.172 39.9333 130.305 39.3C131.472 38.6667 132.972 38.1833 134.805 37.85C136.672 37.4833 138.905 37.3 141.505 37.3C144.105 37.3 146.322 37.4833 148.155 37.85C150.022 38.1833 151.522 38.6667 152.655 39.3C153.822 39.9333 154.672 40.6833 155.205 41.55C155.738 42.4167 156.005 43.35 156.005 44.35C156.005 46.0833 155.205 47.5667 153.605 48.8C152.038 50.0333 149.422 50.8333 145.755 51.2V53.2L156.805 53C157.405 53 157.822 53.1 158.055 53.3C158.322 53.5 158.455 53.8833 158.455 54.45V58.15C158.455 58.7167 158.322 59.1 158.055 59.3C157.822 59.5 157.405 59.6 156.805 59.6L126.205 60.1C125.605 60.1 125.172 60 124.905 59.8C124.672 59.6 124.555 59.2167 124.555 58.65V54.95C124.555 54.3833 124.672 54 124.905 53.8C125.172 53.6 125.605 53.5 126.205 53.5L137.255 53.35V51.2C135.422 51.0333 133.855 50.75 132.555 50.35C131.255 49.9167 130.188 49.4 129.355 48.8C128.555 48.2 127.955 47.5333 127.555 46.8C127.188 46.0333 127.005 45.2167 127.005 44.35ZM128.555 75.7C127.855 75.7333 127.372 75.6 127.105 75.3C126.838 75 126.688 74.5667 126.655 74L126.205 64.1C126.172 62.8667 126.888 62.2167 128.355 62.15L154.705 61.65C156.205 61.5833 156.922 62.2333 156.855 63.6L156.405 73.5C156.372 74.0667 156.222 74.4833 155.955 74.75C155.688 75.0167 155.205 75.1667 154.505 75.2L128.555 75.7ZM137.255 29.55V27.75C137.255 27.0167 137.372 26.55 137.605 26.35C137.838 26.1167 138.305 26 139.005 26H144.005C144.738 26 145.205 26.1 145.405 26.3C145.638 26.5 145.755 26.9833 145.755 27.75V29.4L156.505 29.2C157.105 29.2 157.522 29.3 157.755 29.5C158.022 29.7 158.155 30.0833 158.155 30.65V34.35C158.155 34.9167 158.022 35.3 157.755 35.5C157.522 35.7 157.105 35.8 156.505 35.8L126.405 36.3C125.805 36.3 125.372 36.2 125.105 36C124.872 35.8 124.755 35.4167 124.755 34.85V31.15C124.755 30.5833 124.872 30.2 125.105 30C125.372 29.8 125.805 29.7 126.405 29.7L137.255 29.55ZM134.955 70.35L148.105 70.15V67.25L134.955 67.45V70.35ZM141.505 46.05C143.538 46.05 145.005 45.9167 145.905 45.65C146.805 45.35 147.255 44.9167 147.255 44.35C147.255 43.7833 146.805 43.3667 145.905 43.1C145.005 42.8 143.538 42.65 141.505 42.65C139.472 42.65 138.005 42.8 137.105 43.1C136.205 43.3667 135.755 43.7833 135.755 44.35C135.755 44.9167 136.205 45.35 137.105 45.65C138.005 45.9167 139.472 46.05 141.505 46.05Z" fill="white"/>
</g>
<defs>
<clipPath id="clip0_1_709">
<rect width="283" height="107" fill="white"/>
</clipPath>
</defs>
</svg>
