<svg width="89" height="91" viewBox="0 0 89 91" fill="none" xmlns="http://www.w3.org/2000/svg">
<g clip-path="url(#clip0_1_1007)">
<path d="M84.9538 62.6938C85.1696 64.9611 85.1768 68.1037 84.2703 71.6696C82.3783 79.1099 77.6806 83.6946 75.544 85.5457C75.5584 83.1637 75.8318 80.1646 76.7742 76.8426C78.7381 69.883 82.5797 65.1692 84.9609 62.6938H84.9538Z" fill="#E6D3C8"/>
<path d="M18.0283 0.803806C15.05 1.41367 11.6472 2.66209 8.56816 5.15893C1.12237 11.1858 -1.62574 22.235 0.935328 33.6287C4.02875 27.8386 7.12217 21.9767 10.2084 16.036C12.863 10.9275 15.4672 5.84772 18.0283 0.796631V0.803806Z" fill="#E6D3C8"/>
<path d="M61.6524 90.5248L24.3228 89.2476C14.1289 88.8961 5.15076 80.7598 4.19395 70.6792L0.345165 30.17C-0.841845 17.6858 7.8629 7.21055 19.92 7.36122L64.1631 7.90651C76.5872 8.05718 85.9322 18.9988 84.997 31.7413L81.9683 72.9679C81.2201 83.2064 72.1125 90.8835 61.6524 90.5248Z" fill="#E6D3C8"/>
<path d="M64.6382 83.1704L27.3086 81.8933C17.1147 81.5418 8.13658 73.4055 7.17978 63.3249L3.33099 22.8157C2.14398 10.3243 10.8559 -0.143748 22.9131 -0.000250977L67.1561 0.545037C79.5802 0.695708 88.9252 11.6373 87.99 24.3798L84.9613 65.6065C84.2131 75.8449 75.1055 83.522 64.6454 83.1633L64.6382 83.1704Z" fill="#F5ECE6"/>
<path d="M60.6882 74.5179L31.1209 73.5063C23.042 73.2265 15.9415 66.7835 15.179 58.805L12.1287 26.7192C11.1863 16.8251 18.0853 8.53097 27.639 8.65294L62.6809 9.08343C72.5223 9.2054 79.9178 17.8726 79.1768 27.9604L76.7812 60.6131C76.1841 68.7207 68.9757 74.8049 60.6882 74.5179Z" fill="#56ACB8"/>
<path d="M65.8539 66.2812C65.6525 64.8677 60.6599 64.3152 57.1276 64.4659C51.2213 64.717 44.5885 67.135 44.7611 68.821C44.941 70.543 52.2573 71.8201 58.5808 70.2704C61.8253 69.474 66.0482 67.63 65.8539 66.2812Z" fill="#B9DCE2"/>
<path d="M28.805 30.6068C26.4057 30.7252 24.46 29.3748 24.46 27.5625C24.46 25.7501 26.4057 24.0325 28.805 23.8075C31.2043 23.5824 33.15 25.0157 33.15 26.9347C33.15 28.8536 31.1923 30.4883 28.805 30.6068Z" fill="white"/>
<path d="M28.805 43.092C26.4057 43.0327 24.46 41.5047 24.46 39.6923C24.46 37.88 26.4057 36.3519 28.805 36.2927C31.2043 36.2334 33.15 37.7734 33.15 39.6923C33.15 41.6113 31.1923 43.1512 28.805 43.092Z" fill="white"/>
<path d="M28.805 54.5465C26.4057 54.3096 24.46 52.6039 24.46 50.7915C24.46 48.9792 26.4057 47.6288 28.805 47.7472C31.2043 47.8657 33.15 49.5003 33.15 51.4193C33.15 53.3383 31.1923 54.7716 28.805 54.5465Z" fill="white"/>
<path d="M66.9909 26.532C66.9909 28.9603 60.4733 30.5713 52.3802 30.4646C44.287 30.3107 37.7217 28.3325 37.7217 25.6909C37.7217 23.0731 44.287 20.5145 52.3802 20.8343C60.4733 21.1778 67.0028 24.1036 66.9909 26.5201V26.532Z" fill="white"/>
<path d="M66.9909 38.6618C66.9909 41.0901 60.4733 43.3526 52.3802 43.4711C44.287 43.554 37.7217 41.2797 37.7217 38.6618C37.7217 36.0321 44.287 33.7696 52.3802 33.8526C60.4733 33.971 67.0028 36.2453 66.9909 38.6618Z" fill="white"/>
<path d="M66.9909 50.7913C66.9909 53.2078 60.4733 56.1336 52.3802 56.4772C44.287 56.797 37.7217 54.2384 37.7217 51.6205C37.7217 48.9908 44.287 47.0126 52.3802 46.8468C60.4733 46.7402 67.0028 48.3512 66.9909 50.7795V50.7913Z" fill="white"/>
</g>
<defs>
<clipPath id="clip0_1_1007">
<rect width="88.0474" height="90.5393" fill="white"/>
</clipPath>
</defs>
</svg>
